Coordinates
version=1
nRows=27
nColumns=12
inDegrees=yes

Units are S.I. units (second, meters, Newtons, ...)
Angles are in degrees

endheader
time	SC_y	SC_z	SC_x	AC_y	AC_z	AC_x	GH_y	GH_z	GH_yy	EL_x	PS_y
       0.0              -26.41         -1.169          84.64          60.18         0.7782          5.578          -35.4         -19.02          120.6          100.6          140.7
   0.04176              -26.42         -1.166          84.64          60.18          0.778          5.579         -35.38         -19.01          120.6          100.6          140.7
   0.08352              -26.42         -1.162          84.63          60.18         0.7779           5.58         -35.35         -19.01          120.6          100.6          140.6
    0.1253              -26.42         -1.159          84.62          60.18         0.7777          5.582         -35.33          -19.0          120.6          100.6          140.6
     0.167              -26.43         -1.155          84.61          60.18         0.7776          5.583          -35.3         -18.99          120.6          100.6          140.6
    0.2088              -26.43         -1.151          84.59          60.18         0.7774          5.584         -35.28         -18.98          120.6          100.6          140.6
    0.2506              -26.44         -1.146          84.58          60.18         0.7772          5.585         -35.25         -18.97          120.6          100.6          140.6
    0.2923              -26.44         -1.141          84.57          60.18          0.777          5.587         -35.21         -18.96          120.6          100.6          140.5
    0.3341              -26.45         -1.136          84.56          60.18         0.7768          5.589         -35.18         -18.95          120.6          100.6          140.5
    0.3758              -26.45         -1.131          84.54          60.18         0.7765           5.59         -35.15         -18.94          120.6          100.6          140.5
    0.4176              -26.46         -1.125          84.53          60.18         0.7763          5.592         -35.11         -18.93          120.6          100.5          140.5
    0.4594              -26.46         -1.119          84.51          60.18          0.776          5.594         -35.07         -18.92          120.6          100.5          140.4
    0.5011              -26.47         -1.112          84.49          60.19         0.7757          5.596         -35.02         -18.91          120.6          100.5          140.4
    0.5429              -26.48         -1.105          84.47          60.19         0.7754          5.598         -34.97         -18.89          120.6          100.5          140.4
    0.5847              -26.49         -1.097          84.45          60.19         0.7751          5.601         -34.92         -18.88          120.6          100.5          140.3
    0.6264              -26.49         -1.088          84.42          60.19         0.7747          5.604         -34.86         -18.86          120.6          100.5          140.3
    0.6682               -26.5         -1.079           84.4          60.19         0.7743          5.606          -34.8         -18.84          120.6          100.4          140.2
    0.7099              -26.51         -1.069          84.37          60.19         0.7739           5.61         -34.73         -18.82          120.6          100.4          140.2
    0.7517              -26.53         -1.057          84.34          60.19         0.7734          5.613         -34.66          -18.8          120.6          100.4          140.1
    0.7935              -26.54         -1.045          84.31           60.2         0.7729          5.617         -34.58         -18.77          120.6          100.4          140.1
    0.8352              -26.55         -1.032          84.27           60.2         0.7723          5.621         -34.49         -18.75          120.6          100.3          140.0
     0.877              -26.57         -1.017          84.23           60.2         0.7717          5.626          -34.4         -18.72          120.5          100.3          139.9
    0.9187              -26.58         -1.001          84.19           60.2          0.771          5.631         -34.29         -18.68          120.5          100.3          139.9
    0.9605               -26.6         -0.983          84.14          60.21         0.7702          5.636         -34.17         -18.65          120.5          100.2          139.8
     1.002              -26.62         -0.963          84.08          60.21         0.7694          5.643         -34.04         -18.61          120.5          100.2          139.7
     1.044              -26.65        -0.9406          84.02          60.21         0.7684           5.65         -33.89         -18.56          120.5          100.1          139.6
     1.086              -26.67        -0.9156          83.95          60.22         0.7673          5.657         -33.72         -18.51          120.5          100.1          139.4
